<svg xmlns="http://www.w3.org/2000/svg" width="512" height="512" viewBox="0 0 512 512"><path fill="#FFC71C" d="M40 512c-22.1 0-40-17.9-40-40V40C0 17.9 17.9 0 40 0h432c22.1 0 40 17.9 40 40v432c0 22.1-17.9 40-40 40H40z"/><path d="M395.7 146.7c-27.7-15.4-62.1-15-87.6.9-21.8 13.6-33.5 36.6-32.1 63.1 1.4 27 13.5 42.2 23.4 50.1 24.7 19.8 58.3 14.8 62 14.1 9.4-1.6 15.8-10.5 14.2-20-1.6-9.5-10.5-15.9-20-14.4-6 1-24 1.6-34.6-7-6.3-5.1-9.7-13.2-10.3-24.6-.9-17.6 8.1-27 15.7-31.8 14.7-9.2 35.7-9.2 52.3 0 19 10.5 29.5 31.5 29.5 59.2 0 95.1-73.7 105.4-105.4 105.4-48.4 0-76.9-30.7-92.3-47.2l-5.7-6c-14.6-14.6-61.2-89.7-95.5-147.3H68.9c14.6 24.9 87.7 148.3 111.3 171.9l4.9 5.1c17.6 18.9 54.3 58.3 117.8 58.3 38.3 0 71.6-11.2 96.3-32.4 28.7-24.7 43.9-61.9 43.9-107.7 0-40.3-17.3-73-47.4-89.7z"/><path d="M166.4 141.2h-41.3l86.6 135.5 19.9-33.6zM220.7 141.2h-41.5l58.9 90.8 19.8-33.5zM234.9 141.2l30.1 45.3 26.9-45.3z"/></svg>