<svg xmlns="http://www.w3.org/2000/svg" xmlns:xlink="http://www.w3.org/1999/xlink" width="60" height="60" viewBox="0 0 60 60">
  <defs>
    <polygon id="group-3-a" points="0 0 59.265 0 59.265 59.143 0 59.143"/>
  </defs>
  <g fill="none" fill-rule="evenodd">
    <mask id="group-3-b" fill="#fff">
      <use xlink:href="#group-3-a"/>
    </mask>
    <path fill="#00AAE5" d="M55.468898,38.0813878 C52.7762449,46.2854694 46.2852245,52.8989388 38.0823673,55.5915918 C37.9586939,55.5915918 37.8374694,55.7140408 37.7137959,55.7140408 C37.2252245,55.7140408 36.7342041,55.3479184 36.4893061,54.856898 C36.2456327,54.2446531 36.6129796,53.5111837 37.2252245,53.2650612 C44.6933878,50.8160816 50.6946122,44.8160816 53.1435918,37.3466939 C53.3884898,36.734449 54.0007347,36.367102 54.7342041,36.612 C55.346449,36.734449 55.7137959,37.4691429 55.468898,38.0813878 Z M22.6525714,54.856898 C22.5313469,55.3479184 22.0403265,55.7140408 21.4280816,55.7140408 L21.0607347,55.7140408 C12.8566531,52.8989388 6.24440816,46.4079184 3.5517551,38.0813878 C3.30563265,37.4691429 3.67297959,36.734449 4.28522449,36.489551 C4.89746939,36.2446531 5.63216327,36.612 5.87706122,37.2242449 C8.32604082,44.8160816 14.3260408,50.6936327 21.7954286,53.1426122 C22.5313469,53.5111837 22.7750204,54.2446531 22.6525714,54.856898 Z M3.5517551,21.1834286 C6.24440816,12.856898 12.8566531,6.36710204 21.0607347,3.67322449 C21.6729796,3.42832653 22.4076735,3.79567347 22.6525714,4.40791837 C22.8974694,5.02016327 22.5313469,5.75485714 21.919102,5.9997551 C14.3260408,8.44873469 8.44971429,14.4487347 6.00073469,21.9181224 C5.87706122,22.4079184 5.3884898,22.7752653 4.7762449,22.7752653 L4.40767347,22.7752653 C3.67297959,22.5303673 3.30563265,21.7956735 3.5517551,21.1834286 Z M36.4893061,4.40791837 C36.7342041,3.79567347 37.346449,3.42832653 38.0823673,3.67322449 C46.2852245,6.36710204 52.8974694,12.856898 55.468898,21.1834286 C55.7137959,21.7956735 55.346449,22.5303673 54.7342041,22.7752653 L54.3680816,22.7752653 C53.8770612,22.7752653 53.3884898,22.4079184 53.1435918,21.9181224 C50.6946122,14.4487347 44.6933878,8.44873469 37.2252245,5.9997551 C36.6129796,5.75485714 36.3668571,5.14261224 36.4893061,4.40791837 Z M2.4484898,29.6324082 C2.4484898,28.8977143 3.06073469,28.4079184 3.67297959,28.4079184 C4.28522449,28.4079184 4.89746939,29.0201633 4.89746939,29.6324082 C4.89746939,30.2446531 4.28522449,30.856898 3.67297959,30.856898 C3.06073469,30.856898 2.4484898,30.367102 2.4484898,29.6324082 Z M7.34644898,29.6324082 C7.34644898,27.5507755 5.63216327,25.9589388 3.67297959,25.9589388 C1.59134694,25.9589388 -0.000489795918,27.6732245 -0.000489795918,29.6324082 C-0.000489795918,31.5915918 1.71502041,33.3058776 3.67297959,33.3058776 C5.75461224,33.3058776 7.34644898,31.7140408 7.34644898,29.6324082 Z M55.5925714,30.856898 C54.8566531,30.856898 54.3680816,30.2446531 54.3680816,29.6324082 C54.3680816,29.0201633 54.9803265,28.4079184 55.5925714,28.4079184 C56.2048163,28.4079184 56.8170612,29.0201633 56.8170612,29.6324082 C56.8170612,30.2446531 56.3260408,30.856898 55.5925714,30.856898 Z M55.5925714,25.9589388 C53.5097143,25.9589388 51.919102,27.6732245 51.919102,29.6324082 C51.919102,31.5915918 53.6321633,33.3058776 55.5925714,33.3058776 C57.6742041,33.3058776 59.2660408,31.5915918 59.2660408,29.6324082 C59.2660408,27.6732245 57.6742041,25.9589388 55.5925714,25.9589388 Z M29.6321633,56.8160816 C28.8974694,56.8160816 28.4076735,56.2038367 28.4076735,55.5915918 C28.4076735,54.9793469 29.0199184,54.367102 29.6321633,54.367102 C30.2444082,54.367102 30.8566531,54.9793469 30.8566531,55.5915918 C30.8566531,56.2038367 30.3668571,56.8160816 29.6321633,56.8160816 Z M29.6321633,51.7956735 C27.5505306,51.7956735 25.9586939,53.5111837 25.9586939,55.4691429 C25.9586939,57.5507755 27.6729796,59.1426122 29.6321633,59.1426122 C31.5913469,59.1426122 33.3056327,57.4283265 33.3056327,55.4691429 C33.3056327,53.5111837 31.7150204,51.7956735 29.6321633,51.7956735 Z M29.6321633,2.44873469 C30.3668571,2.44873469 30.8566531,3.06097959 30.8566531,3.67322449 C30.8566531,4.28546939 30.2444082,4.89771429 29.6321633,4.89771429 C29.0199184,4.89771429 28.4076735,4.28546939 28.4076735,3.67322449 C28.4076735,3.06097959 28.8974694,2.44873469 29.6321633,2.44873469 Z M29.6321633,7.34669388 C31.7150204,7.34669388 33.3056327,5.63240816 33.3056327,3.67322449 C33.3056327,1.59159184 31.5913469,-0.000244897959 29.6321633,-0.000244897959 C27.6729796,-0.000244897959 25.9586939,1.71404082 25.9586939,3.67322449 C25.9586939,5.75485714 27.5505306,7.34669388 29.6321633,7.34669388 Z M36.6129796,46.2854694 C37.8374694,44.8160816 38.8158367,43.1030204 39.6742041,41.0201633 C40.6525714,41.3875102 41.6321633,41.7548571 42.4893061,42.2446531 C40.8986939,43.9589388 38.9382857,45.3058776 36.6129796,46.2854694 Z M16.6525714,42.2446531 C17.5097143,41.7548571 18.4893061,41.3875102 19.4701224,41.0201633 C20.3260408,43.1030204 21.3068571,44.9397551 22.5313469,46.2854694 C20.3260408,45.3058776 18.3668571,43.9589388 16.6525714,42.2446531 Z M42.7354286,17.2650612 C41.7558367,17.7548571 40.7750204,18.1222041 39.7954286,18.489551 C38.9382857,16.2854694 37.9586939,14.4487347 36.6129796,12.9793469 C38.9382857,13.9589388 41.0199184,15.4283265 42.7354286,17.2650612 Z M41.6321633,28.4079184 C41.5109388,25.7140408 41.1435918,23.1426122 40.5313469,20.8160816 C41.8770612,20.3262857 43.224,19.8364898 44.3260408,19.2242449 C46.1627755,21.9181224 47.3872653,25.1017959 47.6333878,28.5303673 L41.6321633,28.5303673 L41.6321633,28.4079184 Z M41.6321633,30.856898 L47.6333878,30.856898 C47.3872653,34.4079184 46.1627755,37.7140408 44.0811429,40.4079184 C42.9803265,39.7956735 41.7558367,39.1834286 40.4076735,38.6936327 C41.1435918,36.2446531 41.6321633,33.6732245 41.6321633,30.856898 Z M30.8566531,36.856898 L30.8566531,30.856898 L39.1831837,30.856898 C39.0619592,33.4283265 38.6946122,35.7548571 38.0823673,37.9589388 C35.8770612,37.3466939 33.4280816,36.9793469 30.8566531,36.856898 Z M30.8566531,47.3887347 L30.8566531,39.3058776 C33.0607347,39.429551 35.2648163,39.6732245 37.346449,40.1630204 C35.7546122,44.0813878 33.4280816,46.7764898 30.8566531,47.3887347 Z M28.4076735,39.3058776 L28.4076735,47.3887347 C25.8362449,46.7764898 23.5097143,44.0813878 21.919102,40.2854694 C23.9995102,39.7956735 26.2048163,39.429551 28.4076735,39.3058776 Z M20.0823673,30.856898 L28.4076735,30.856898 L28.4076735,36.856898 C25.8362449,36.9793469 23.3872653,37.2242449 21.1831837,37.8364898 C20.5709388,35.7548571 20.0823673,33.4283265 20.0823673,30.856898 Z M17.6333878,30.856898 C17.7546122,33.6732245 18.1219592,36.2446531 18.8578776,38.6936327 C17.5097143,39.1834286 16.2852245,39.7956735 15.1844082,40.4079184 C13.224,37.7140408 11.8770612,34.4079184 11.6321633,30.856898 L17.6333878,30.856898 Z M18.8578776,20.3262857 C18.1219592,22.7752653 17.7546122,25.4691429 17.6333878,28.4079184 L11.6321633,28.4079184 C11.8770612,24.734449 13.224,21.4283265 15.3056327,18.612 C16.408898,19.3466939 17.5097143,19.8364898 18.8578776,20.3262857 Z M19.5913469,18.1222041 C18.6117551,17.7548571 17.7546122,17.2650612 16.8974694,16.7752653 C18.4893061,15.1834286 20.4484898,13.8364898 22.5313469,12.9793469 C21.4280816,14.3262857 20.4484898,16.0405714 19.5913469,18.1222041 Z M30.8566531,19.9589388 L30.8566531,11.8773061 C33.5517551,12.489551 35.8770612,15.3058776 37.346449,19.1017959 C35.2648163,19.5915918 33.0607347,19.8364898 30.8566531,19.9589388 Z M30.8566531,22.4079184 C33.4280816,22.4079184 35.8770612,22.0405714 38.2035918,21.5507755 C38.8158367,23.6324082 39.1831837,25.9589388 39.3068571,28.5303673 L30.8566531,28.5303673 L30.8566531,22.4079184 Z M28.4076735,22.2854694 L28.4076735,28.4079184 L20.0823673,28.4079184 C20.2035918,25.8364898 20.5709388,23.3875102 21.1831837,21.1834286 C23.3872653,21.7956735 25.8362449,22.1630204 28.4076735,22.2854694 Z M28.4076735,19.8364898 C26.2048163,19.7140408 23.9995102,19.3466939 22.0403265,18.856898 C23.6321633,15.0609796 25.8362449,12.489551 28.4076735,11.8773061 L28.4076735,19.8364898 Z M29.6321633,9.06097959 C18.3668571,9.06097959 9.06195918,18.367102 9.06195918,29.6324082 C9.06195918,40.8977143 18.3668571,50.2038367 29.6321633,50.2038367 C40.8986939,50.2038367 50.2035918,40.8977143 50.2035918,29.6324082 C50.2035918,18.367102 40.8986939,9.06097959 29.6321633,9.06097959 Z" mask="url(#group-3-b)"/>
  </g>
</svg>
