<svg xmlns="http://www.w3.org/2000/svg" xmlns:xlink="http://www.w3.org/1999/xlink" width="59" height="50" viewBox="0 0 59 50">
  <defs>
    <polygon id="group-8-a" points="0 .237 58.839 .237 58.839 49.814 0 49.814"/>
  </defs>
  <g fill="none" fill-rule="evenodd" transform="translate(0 -1)">
    <path fill="#00AAE5" d="M16.5883529 10.4369721L31.4118824 10.4369721C32.1177647 10.4369721 32.5883529 9.96255349 32.5883529 9.25092558 32.5883529 8.53929767 32.1177647 8.06487907 31.4118824 8.06487907L16.5883529 8.06487907C15.8824706 8.06487907 15.4118824 8.53929767 15.4118824 9.25092558 15.4118824 9.96255349 16.0001176 10.4369721 16.5883529 10.4369721M26.9410588 27.2790698C26.9410588 27.9906977 27.4116471 28.4651163 28.1175294 28.4651163 28.8234118 28.4651163 29.294 27.9906977 29.294 27.2790698 29.294 23.2465116 32.5881176 19.9255814 36.5881176 19.9255814 37.294 19.9255814 37.7645882 19.4511628 37.7645882 18.7395349 37.7645882 18.027907 37.294 17.5534884 36.5881176 17.5534884 31.294 17.5534884 26.9410588 21.9418605 26.9410588 27.2790698"/>
    <g transform="translate(0 .949)">
      <mask id="group-8-b" fill="#fff">
        <use xlink:href="#group-8-a"/>
      </mask>
      <path fill="#00AAE5" d="M55.7651765,45.6625535 C54.9416471,46.492786 53.4122353,46.492786 52.5887059,45.6625535 L45.1769412,38.1904605 C46.3534118,37.2416233 47.4110588,36.1741814 48.3522353,34.9881349 L55.7651765,42.4602279 C56.7063529,43.2904605 56.7063529,44.8323209 55.7651765,45.6625535 Z M39.4122353,47.4416233 L7.05929412,47.4416233 L7.05929412,45.0695302 L35.8828235,45.0695302 C36.5875294,45.0695302 37.0592941,44.5962977 37.0592941,43.8834837 L37.0592941,41.0381581 C37.8828235,41.0381581 38.7063529,40.9183674 39.4122353,40.7997628 L39.4122353,47.4416233 Z M2.35341176,13.1648791 L11.6475294,13.1648791 C12.3534118,13.1648791 12.824,12.6904605 12.824,11.9788326 L12.824,2.60906512 L34.7063529,2.60906512 L34.7063529,11.8602279 C31.1769412,12.3346465 27.9992941,14.1137163 25.7651765,16.7230186 L5.88282353,16.7230186 C5.17694118,16.7230186 4.70635294,17.1974372 4.70635294,17.9090651 C4.70635294,18.620693 5.17694118,19.0951116 5.88282353,19.0951116 L24.0004706,19.0951116 C22.824,21.2299953 22.1169412,23.6020884 22.1169412,26.3299953 L5.88282353,26.3299953 C5.17694118,26.3299953 4.70635294,26.804414 4.70635294,27.5160419 C4.70635294,28.2276698 5.17694118,28.7020884 5.88282353,28.7020884 L22.2357647,28.7020884 C22.7051765,31.4299953 23.7651765,33.9218791 25.4122353,35.9369721 L5.88282353,35.9369721 C5.17694118,35.9369721 4.70635294,36.4113907 4.70635294,37.1230186 C4.70635294,37.8346465 5.17694118,38.3090651 5.88282353,38.3090651 L27.9992941,38.3090651 C29.8828235,39.7323209 32.2357647,40.6811581 34.7063529,41.0381581 L34.7063529,42.8172279 L2.35341176,42.8172279 L2.35341176,13.1648791 Z M10.4710588,4.26953023 L10.4710588,10.792786 L4.00047059,10.792786 L10.4710588,4.26953023 Z M39.4122353,7.35325116 L39.4122353,11.8602279 C38.5875294,11.7416233 37.8828235,11.6230186 37.0592941,11.6230186 L37.0592941,7.35325116 L39.4122353,7.35325116 Z M48.824,26.3299953 C48.824,33.0904605 43.2934118,38.6660651 36.5875294,38.6660651 C29.8828235,38.6660651 24.3534118,33.0904605 24.3534118,26.3299953 C24.3534118,19.5695302 29.8828235,13.9951116 36.5875294,13.9951116 C43.2934118,13.9951116 48.824,19.5695302 48.824,26.3299953 Z M57.5298824,40.7997628 L49.764,32.9718558 C50.7051765,30.9555767 51.2934118,28.820693 51.2934118,26.4486 C51.2934118,20.1625535 47.2945882,14.8253442 41.8816471,12.6904605 L41.8816471,6.16720465 C41.8816471,5.45557674 41.4122353,4.98115814 40.7051765,4.98115814 L37.1757647,4.98115814 L37.1757647,1.4230186 C37.1757647,0.711390698 36.7063529,0.236972093 35.9992941,0.236972093 L11.6475294,0.236972093 C11.2945882,0.236972093 11.0592941,0.355576744 10.824,0.592786047 L0.352235294,11.1486 C0.118117647,11.2672047 0.000470588235,11.6230186 0.000470588235,11.9788326 L0.000470588235,43.8834837 C0.000470588235,44.5962977 0.471058824,45.0695302 1.17694118,45.0695302 L4.70635294,45.0695302 L4.70635294,48.6276698 C4.70635294,49.3404837 5.17694118,49.8137163 5.88282353,49.8137163 L40.5887059,49.8137163 C41.2934118,49.8137163 41.7651765,49.3404837 41.7651765,48.6276698 L41.7651765,40.0881349 C42.2357647,39.8521116 42.7051765,39.7323209 43.1769412,39.4951116 L50.9404706,47.3230186 C52.7051765,49.1020884 55.6463529,49.1020884 57.4110588,47.3230186 C59.2945882,45.5439488 59.2945882,42.5788326 57.5298824,40.7997628 Z" mask="url(#group-8-b)"/>
    </g>
  </g>
</svg>
